Coordinates
version=1
nRows=34
nColumns=34
inDegrees=no

Units are S.I. units (second, meters, Newtons, ...)
If the header above contains a line with 'inDegrees', this indicates whether rotational values are in degrees (yes) or radians (no).

endheader
time	pelvis_tilt	pelvis_list	pelvis_rotation	pelvis_tx	pelvis_ty	pelvis_tz	hip_flexion_r	hip_adduction_r	hip_rotation_r	knee_angle_r	ankle_angle_r	subtalar_angle_r	mtp_angle_r	hip_flexion_l	hip_adduction_l	hip_rotation_l	knee_angle_l	ankle_angle_l	subtalar_angle_l	mtp_angle_l	lumbar_extension	lumbar_bending	lumbar_rotation	arm_flex_r	arm_add_r	arm_rot_r	elbow_flex_r	pro_sup_r	arm_flex_l	arm_add_l	arm_rot_l	elbow_flex_l	pro_sup_l
2.96	-0.658031	0.0150643	-0.0560049	-0.291723	0.739452	-0.621936	1.43826	-0.258008	-0.146479	1.26927	0.574422	-0.0351957	-0.0994218	1.44702	-0.382002	-0.162226	1.27421	0.580705	0.125378	-0.0994806	0.139545	-0.00186297	0.00750265	0.590153	-0.440176	0.538785	2.37958	1.68514	0.675875	-0.469754	0.685798	2.27144	1.90029
2.97	-0.664709	0.0149404	-0.0533665	-0.294356	0.732506	-0.622018	1.46267	-0.261993	-0.142608	1.29407	0.582041	-0.0361356	-0.0994218	1.47267	-0.382158	-0.154284	1.29771	0.586806	0.126402	-0.0994806	0.133885	-0.0025076	0.00354837	0.613054	-0.438448	0.542891	2.37942	1.68466	0.696034	-0.470882	0.689834	2.26974	1.90013
2.98	-0.67098	0.0145277	-0.0505206	-0.296855	0.725664	-0.622137	1.48613	-0.266401	-0.13926	1.31837	0.589717	-0.0359648	-0.0994218	1.49756	-0.381945	-0.146209	1.32057	0.592703	0.127303	-0.0994806	0.12825	-0.00271812	-0.000536264	0.635445	-0.436805	0.547003	2.37904	1.68485	0.715233	-0.471376	0.693231	2.26812	1.89975
2.99	-0.676917	0.0139397	-0.04775	-0.299231	0.718922	-0.622266	1.50879	-0.27096	-0.13623	1.34214	0.597375	-0.0347469	-0.0994218	1.52175	-0.381667	-0.138181	1.34285	0.598441	0.128175	-0.0994806	0.122734	-0.00259101	-0.00448038	0.657324	-0.435236	0.551073	2.37831	1.68598	0.733458	-0.47129	0.695871	2.2666	1.89921
3	-0.682596	0.0132847	-0.0453251	-0.301495	0.712276	-0.622376	1.53082	-0.27539	-0.133357	1.36534	0.604911	-0.0326308	-0.0994218	1.54529	-0.381612	-0.13034	1.36464	0.604054	0.129106	-0.0994805	0.11741	-0.00223095	-0.00800242	0.678655	-0.433724	0.554976	2.37719	1.68827	0.750745	-0.470659	0.697645	2.26515	1.89878
3.01	-0.688076	0.0126477	-0.0434619	-0.303657	0.705724	-0.622448	1.55232	-0.279455	-0.130547	1.38792	0.61222	-0.0298211	-0.0994218	1.56824	-0.382016	-0.122765	1.386	0.609572	0.130182	-0.0994805	0.112319	-0.00173381	-0.0108563	0.699372	-0.432261	0.558544	2.37569	1.69184	0.767172	-0.469512	0.698479	2.26373	1.89893
3.02	-0.693387	0.0120942	-0.0422926	-0.305726	0.699267	-0.622467	1.57335	-0.283001	-0.127758	1.40983	0.619219	-0.0265233	-0.0994218	1.59064	-0.38303	-0.115487	1.40696	0.615015	0.131476	-0.0994805	0.10746	-0.00118914	-0.012871	0.719397	-0.430844	0.561606	2.37389	1.69667	0.782853	-0.467892	0.698354	2.26227	1.90026
3.03	-0.698539	0.01168	-0.0418562	-0.30771	0.692908	-0.62243	1.59393	-0.285973	-0.124972	1.43105	0.625864	-0.0228958	-0.0994218	1.61248	-0.3847	-0.108507	1.42756	0.620387	0.133041	-0.0994805	0.102801	-0.000687708	-0.0139731	0.738667	-0.429477	0.564037	2.37191	1.7025	0.79792	-0.465865	0.697312	2.2607	1.90329
3.04	-0.703517	0.0114576	-0.0421099	-0.309614	0.686652	-0.622339	1.61406	-0.288405	-0.122175	1.45156	0.632151	-0.0190329	-0.0994218	1.63376	-0.386982	-0.101824	1.44778	0.625682	0.134893	-0.0994805	0.0982812	-0.000323657	-0.0141872	0.757149	-0.428175	0.565796	2.36986	1.70891	0.812511	-0.463522	0.695471	2.259	1.90816
3.05	-0.708278	0.0114768	-0.0429536	-0.311444	0.680504	-0.622203	1.63371	-0.290389	-0.119342	1.47139	0.638108	-0.0149766	-0.0994218	1.65438	-0.389775	-0.0954478	1.46761	0.630891	0.137004	-0.0994805	0.0938079	-0.000190514	-0.0136152	0.774849	-0.426961	0.566932	2.36785	1.71533	0.826758	-0.460964	0.693034	2.25724	1.91428
3.06	-0.712762	0.0117765	-0.044255	-0.3132	0.674477	-0.622032	1.65283	-0.292041	-0.116443	1.49055	0.643786	-0.0107487	-0.0994218	1.67426	-0.392945	-0.0894067	1.487	0.636004	0.139312	-0.0994804	0.0892656	-0.000370425	-0.0124099	0.791806	-0.425865	0.567559	2.36598	1.72133	0.840779	-0.458291	0.69024	2.25551	1.92079
3.07	-0.716894	0.0123753	-0.0458666	-0.314884	0.668582	-0.621836	1.67134	-0.293475	-0.113445	1.50909	0.649244	-0.00638601	-0.0994218	1.69329	-0.396353	-0.083731	1.50589	0.64101	0.14173	-0.0994804	0.0845287	-0.000923314	-0.0107505	0.808071	-0.424903	0.567804	2.36426	1.72672	0.854679	-0.455601	0.687311	2.25388	1.92697
3.08	-0.720608	0.0132679	-0.0476344	-0.316497	0.662834	-0.621625	1.68918	-0.29479	-0.110314	1.52702	0.654532	-0.00195637	-0.0994218	1.71138	-0.399858	-0.0784441	1.52424	0.645894	0.144172	-0.0994804	0.0794854	-0.00188159	-0.00882846	0.823694	-0.424067	0.567775	2.36272	1.73165	0.868551	-0.452991	0.684435	2.2524	1.93249
3.09	-0.723861	0.0144276	-0.0493998	-0.31804	0.657243	-0.621406	1.70629	-0.29608	-0.107021	1.54439	0.659689	0.00245197	-0.0994218	1.72846	-0.403315	-0.073557	1.542	0.650631	0.146566	-0.0994804	0.0740603	-0.00324824	-0.00684191	0.83872	-0.423329	0.567551	2.36132	1.7365	0.88247	-0.450558	0.681756	2.25106	1.93744
3.1	-0.726648	0.0158097	-0.0510063	-0.319516	0.651815	-0.621187	1.72266	-0.297438	-0.103542	1.56124	0.664731	0.00675417	-0.0994218	1.74453	-0.406578	-0.069064	1.55912	0.655188	0.148858	-0.0994804	0.0682271	-0.00499117	-0.00499191	0.853199	-0.422642	0.567203	2.36002	1.74177	0.896484	-0.448392	0.679362	2.24984	1.94224
3.11	-0.728995	0.0173509	-0.0523127	-0.320929	0.646549	-0.620979	1.73833	-0.29895	-0.0998603	1.5776	0.669657	0.0108881	-0.0994218	1.75964	-0.409504	-0.064935	1.57558	0.659529	0.151001	-0.0994804	0.0620012	-0.00703605	-0.0034715	0.867195	-0.421956	0.566822	2.35877	1.74792	0.910609	-0.446567	0.677287	2.24869	1.94739
3.12	-0.730944	0.0189706	-0.0532093	-0.322285	0.641441	-0.620794	1.75333	-0.300691	-0.0959824	1.59353	0.674446	0.0148206	-0.0994218	1.77387	-0.411959	-0.0611097	1.59138	0.663623	0.152948	-0.0994803	0.0554186	-0.00926549	-0.00244525	0.880799	-0.421235	0.566537	2.35755	1.75506	0.924832	-0.445129	0.675541	2.24765	1.95307
3.13	-0.732539	0.0205749	-0.0536311	-0.323588	0.636486	-0.620645	1.76768	-0.302714	-0.0919439	1.60904	0.67907	0.0185442	-0.0994218	1.78731	-0.413839	-0.0574963	1.60655	0.667446	0.154642	-0.0994803	0.0485159	-0.0115276	-0.00202597	0.894125	-0.420463	0.566508	2.35638	1.7629	0.939122	-0.444096	0.674137	2.24675	1.95909
3.14	-0.733817	0.0220597	-0.0535695	-0.324848	0.631678	-0.620544	1.78139	-0.305034	-0.0878213	1.62414	0.683499	0.0220608	-0.0994218	1.80008	-0.415081	-0.0539729	1.62111	0.670983	0.156029	-0.0994803	0.0413237	-0.0136496	-0.00225481	0.907289	-0.419649	0.566891	2.35531	1.77089	0.953442	-0.443463	0.673103	2.24607	1.96491
3.15	-0.734819	0.0233114	-0.053083	-0.32607	0.627016	-0.620498	1.79445	-0.307608	-0.0837383	1.6388	0.687706	0.0253577	-0.0994218	1.81229	-0.415695	-0.0503873	1.63509	0.674228	0.15708	-0.0994803	0.0338764	-0.0154526	-0.00308629	0.920385	-0.418817	0.567799	2.35437	1.77845	0.967756	-0.443197	0.672461	2.24565	1.97005
3.16	-0.735596	0.024208	-0.0523045	-0.327252	0.622509	-0.620502	1.80684	-0.310312	-0.0798678	1.65298	0.691662	0.0283848	-0.0994218	1.82409	-0.415787	-0.046557	1.64853	0.677187	0.15782	-0.0994803	0.0262277	-0.0167654	-0.00438129	0.93346	-0.417996	0.569283	2.35359	1.78521	0.982025	-0.443248	0.672207	2.24549	1.97435
3.17	-0.736218	0.0246254	-0.0514324	-0.328402	0.618161	-0.620532	1.81853	-0.312933	-0.0764204	1.66661	0.69533	0.0310469	-0.0994218	1.83566	-0.41556	-0.0422792	1.66146	0.679872	0.158331	-0.0994802	0.0184605	-0.0174394	-0.00591684	0.946497	-0.417214	0.571316	2.35295	1.79105	0.996215	-0.443554	0.672322	2.24554	1.97799
3.18	-0.73677	0.0244508	-0.050701	-0.32953	0.613972	-0.620552	1.8295	-0.315205	-0.0736188	1.6796	0.698656	0.0332186	-0.0994218	1.84718	-0.415284	-0.0373556	1.67389	0.682295	0.158743	-0.0994802	0.0106852	-0.0173669	-0.00742009	0.95941	-0.416482	0.573795	2.35245	1.79611	1.01029	-0.444049	0.672769	2.24571	1.98149
3.19	-0.737339	0.0236032	-0.0503316	-0.330643	0.609948	-0.620524	1.83974	-0.316867	-0.0716589	1.69185	0.701583	0.0347761	-0.0994218	1.8588	-0.415232	-0.0316321	1.68581	0.68447	0.159211	-0.0994802	0.00302317	-0.0164976	-0.00862188	0.972057	-0.415796	0.576545	2.35202	1.80072	1.02422	-0.444664	0.673501	2.24587	1.98564
3.2	-0.737999	0.0220544	-0.0504819	-0.331748	0.6061	-0.620415	1.84924	-0.317734	-0.070667	1.70331	0.704059	0.035636	-0.0994218	1.87061	-0.415616	-0.0250437	1.6972	0.686406	0.159876	-0.0994802	-0.00441554	-0.0148498	-0.00931276	0.984259	-0.415143	0.579351	2.35161	1.80521	1.03795	-0.445319	0.674461	2.24591	1.99117
3.21	-0.738786	0.0198497	-0.0512049	-0.332843	0.602443	-0.620212	1.85802	-0.317753	-0.0706619	1.71392	0.706056	0.0357939	-0.0994218	1.88259	-0.416538	-0.0176583	1.708	0.688113	0.160839	-0.0994802	-0.0115548	-0.0125185	-0.00938628	0.995822	-0.414506	0.581979	2.35117	1.80992	1.05143	-0.445926	0.675594	2.24571	1.99871
3.22	-0.739686	0.0171193	-0.0524305	-0.333919	0.599001	-0.619923	1.86608	-0.317031	-0.0715294	1.72365	0.707594	0.035345	-0.0994218	1.89456	-0.41796	-0.00970444	1.71813	0.689603	0.162125	-0.0994802	-0.0183711	-0.00967883	-0.00886104	1.00655	-0.413876	0.584203	2.35064	1.81513	1.06458	-0.446383	0.676854	2.24519	2.00862
3.23	-0.740633	0.014069	-0.053978	-0.334961	0.595801	-0.619579	1.87342	-0.315817	-0.0730283	1.7325	0.708734	0.0344767	-0.0994218	1.90621	-0.419724	-0.00156024	1.72749	0.690894	0.163687	-0.0994801	-0.0248987	-0.00657263	-0.00787548	1.01625	-0.41325	0.585827	2.34998	1.82093	1.07732	-0.446589	0.678217	2.24429	2.02076
3.24	-0.741518	0.0109425	-0.0556026	-0.335948	0.592871	-0.619222	1.88	-0.31444	-0.0748421	1.7405	0.709576	0.0334276	-0.0994218	1.91718	-0.421598	0.00631724	1.73598	0.692006	0.165422	-0.0994801	-0.0312119	-0.00346457	-0.00664744	1.02478	-0.412624	0.58672	2.34918	1.82714	1.08954	-0.44646	0.679667	2.24305	2.03445
3.25	-0.742225	0.00796666	-0.057066	-0.336864	0.590238	-0.618891	1.88581	-0.313219	-0.076662	1.74764	0.710226	0.0324277	-0.0994218	1.9271	-0.423354	0.0134969	1.74354	0.692958	0.167223	-0.0994801	-0.0373865	-0.00058305	-0.00540724	1.03205	-0.411996	0.586828	2.34825	1.83334	1.10111	-0.445944	0.6812	2.24156	2.04842
3.26	-0.742667	0.00530721	-0.0581923	-0.337697	0.587924	-0.618617	1.89081	-0.312389	-0.0782552	1.75395	0.710775	0.0316467	-0.0994218	1.93568	-0.42483	0.0196555	1.75011	0.693768	0.169015	-0.0994801	-0.0434551	0.00191981	-0.00433872	1.03796	-0.411359	0.586166	2.3472	1.83906	1.11188	-0.445028	0.682791	2.23993	2.06147
3.27	-0.742812	0.00305744	-0.0588892	-0.338437	0.585945	-0.618423	1.895	-0.312075	-0.0794879	1.75942	0.711282	0.0311745	-0.0994218	1.9428	-0.425955	0.0246062	1.75569	0.694455	0.170772	-0.0994801	-0.0493772	0.0039753	-0.00355516	1.04249	-0.410705	0.584818	2.34605	1.84393	1.12171	-0.443744	0.684396	2.23828	2.07271
3.28	-0.742693	0.00124742	-0.0591422	-0.339073	0.584304	-0.618317	1.89838	-0.312295	-0.080316	1.76405	0.711772	0.0310248	-0.0994218	1.94843	-0.426736	0.0282903	1.76029	0.695035	0.172508	-0.09948	-0.0550276	0.00558469	-0.00310278	1.04559	-0.410016	0.582914	2.34486	1.84772	1.13041	-0.442157	0.685955	2.23668	2.08168
3.29	-0.742404	-0.000142177	-0.0589982	-0.339599	0.582994	-0.618297	1.90104	-0.312977	-0.080767	1.76783	0.712241	0.031149	-0.0994218	1.9527	-0.427237	0.0307582	1.76394	0.695521	0.174258	-0.09948	-0.0602096	0.00680012	-0.00297346	1.04725	-0.409272	0.580627	2.34365	1.85036	1.13782	-0.440354	0.687396	2.2352	2.0883
